<svg width="208" height="34" viewBox="0 0 208 34" fill="none" xmlns="http://www.w3.org/2000/svg">
<path d="M4.58203 17.1836V18.1992C4.59505 19.2799 4.78385 20.3932 5.14844 21.5391C5.85156 23.7135 7.0625 25.1784 8.78125 25.9336C9.67969 26.3242 10.6172 26.5195 11.5938 26.5195H11.9062C12.9349 26.5195 14.0156 26.1354 15.1484 25.3672C17.2448 23.9349 18.8919 22.3984 20.0898 20.7578C20.6888 19.9245 21.2031 18.8242 21.6328 17.457C22.0625 16.0898 22.2773 14.6836 22.2773 13.2383V12.2227C22.2643 11.194 22.0885 10.1263 21.75 9.01953C21.0339 6.72786 19.7708 5.22396 17.9609 4.50781C17.1146 4.16927 16.2422 4 15.3438 4H14.6602C13.4622 4 12.2513 4.33854 11.0273 5.01562C9.81641 5.67969 8.73568 6.6237 7.78516 7.84766C6.84766 9.05859 6.07943 10.5299 5.48047 12.2617C4.88151 13.9935 4.58203 15.6341 4.58203 17.1836ZM26.1055 12.5156C26.1055 15.1719 25.4349 17.8997 24.0938 20.6992C23.3125 22.3398 22.1992 23.9023 20.7539 25.3867C19.3086 26.8711 18.5859 27.7174 18.5859 27.9258C18.5859 28.3945 19.263 29.2539 20.6172 30.5039C21.0859 30.9466 21.5612 31.2526 22.043 31.4219C22.5378 31.6042 22.7852 31.7344 22.7852 31.8125C22.7852 32.0208 22.5833 32.2357 22.1797 32.457C21.151 33.0169 20.1549 33.2969 19.1914 33.2969H18.7227C17.1992 33.2969 15.181 32.7109 12.668 31.5391C8.4362 29.5599 5.74089 28.056 4.58203 27.0273C3.42318 25.9987 2.50521 24.6966 1.82812 23.1211C1.15104 21.5456 0.8125 19.8138 0.8125 17.9258V17.3789C0.8125 15.5169 1.16406 13.5638 1.86719 11.5195C2.58333 9.47526 3.63151 7.66536 5.01172 6.08984C6.39193 4.51432 7.95443 3.3099 9.69922 2.47656C11.457 1.63021 13.2865 1.20703 15.1875 1.20703H16.3008C17.6419 1.20703 18.9375 1.49349 20.1875 2.06641C22.7656 3.2513 24.5039 5.17188 25.4023 7.82812C25.8711 9.20833 26.1055 10.5885 26.1055 11.9688V12.5156ZM45.0312 27.4375C44.6016 28.1016 44.0156 28.4336 43.2734 28.4336C42.5443 28.4336 42.0039 28.2513 41.6523 27.8867C41.5091 27.7435 41.3333 27.3659 41.125 26.7539C40.9297 26.1419 40.6953 25.8359 40.4219 25.8359C40.3047 25.8359 39.8685 26.1094 39.1133 26.6562C36.2487 28.0104 34.4453 28.694 33.7031 28.707C33.651 28.707 33.599 28.7005 33.5469 28.6875C32.2708 28.6875 31.3008 28.3034 30.6367 27.5352C29.9727 26.7669 29.6406 25.6732 29.6406 24.2539C29.6406 23.668 29.8815 22.0534 30.3633 19.4102C30.8451 16.7539 31.0859 15.1719 31.0859 14.6641C31.0859 14.1562 30.9948 13.6484 30.8125 13.1406C30.6432 12.6198 30.5586 12.2161 30.5586 11.9297C30.5586 11.3177 31.2943 11.0117 32.7656 11.0117H33.1562C33.7943 11.0117 34.237 11.2526 34.4844 11.7344C34.7448 12.2161 34.875 12.9128 34.875 13.8242C34.875 14.7227 34.6471 16.3112 34.1914 18.5898C33.7357 20.8685 33.5078 22.4635 33.5078 23.375C33.5078 25.3411 34.263 26.3242 35.7734 26.3242C36.4635 26.3242 37.2513 25.9922 38.1367 25.3281C39.0352 24.651 39.8099 23.7461 40.4609 22.6133C41.125 21.4805 41.8086 19.026 42.5117 15.25C42.707 14.1302 42.8828 13.375 43.0391 12.9844C43.4948 11.8125 44.1263 11.2266 44.9336 11.2266C45.3112 11.2266 45.6432 11.3828 45.9297 11.6953C46.2292 11.9948 46.3789 12.3464 46.3789 12.75V13.1992C46.3789 13.4987 46.2812 14.1693 46.0859 15.2109C45.9036 16.2526 45.7539 17.1576 45.6367 17.9258C45.5195 18.694 45.4609 19.8594 45.4609 21.4219L45.6758 25.2109C45.6758 26.0182 45.4609 26.7604 45.0312 27.4375ZM53.7227 21.7344V22.125C53.7227 23.3099 53.9505 24.3125 54.4062 25.1328C54.862 25.9401 55.5065 26.3438 56.3398 26.3438H56.6914C57.4336 26.3438 58.2539 26.0182 59.1523 25.3672C60.0508 24.7031 60.8125 23.8372 61.4375 22.7695C62.7005 20.6211 63.332 18.2318 63.332 15.6016V14.6836C63.332 13.9154 63.1237 13.3555 62.707 13.0039C62.2904 12.6523 61.6393 12.4766 60.7539 12.4766H60.5586C59.8164 12.4766 59.0221 12.7044 58.1758 13.1602C57.3294 13.6029 56.5286 14.3581 55.7734 15.4258C54.4062 17.3659 53.7227 19.4688 53.7227 21.7344ZM50.0312 23.0625V22.2812C50.0312 21.0443 50.2982 19.6836 50.832 18.1992C51.3789 16.7018 52.1406 15.3672 53.1172 14.1953C54.0938 13.0104 55.2331 12.0664 56.5352 11.3633C57.8503 10.6471 59.1328 10.2891 60.3828 10.2891H60.7344C61.2943 10.2891 62.1276 10.4323 63.2344 10.7188C64.3542 11.0052 65.2135 11.1484 65.8125 11.1484C66.8932 11.1484 67.4336 11.5781 67.4336 12.4375V12.9844C67.4336 13.6094 67.1667 15.1589 66.6328 17.6328C66.099 20.1068 65.832 21.793 65.832 22.6914C65.832 23.5898 66.0599 24.2995 66.5156 24.8203C66.9714 25.3411 67.1992 25.8685 67.1992 26.4023C67.1992 26.9362 66.9453 27.3854 66.4375 27.75C65.9297 28.1146 65.3568 28.2969 64.7188 28.2969C64.0938 28.2969 63.4297 27.9714 62.7266 27.3203C62.0365 26.6693 61.4505 26.3438 60.9688 26.3438C60.8516 26.3438 60.1029 26.7083 58.7227 27.4375C57.3555 28.1667 56.1641 28.5312 55.1484 28.5312H54.7969C53.4688 28.5312 52.3424 28.0299 51.418 27.0273C50.4935 26.0117 50.0312 24.6901 50.0312 23.0625ZM78.1758 1.67578H78.3906C79.6406 1.67578 80.2656 2.09245 80.2656 2.92578C80.2917 3.00391 80.3047 3.07552 80.3047 3.14062L80.3438 3.51172V3.66797L80.3242 3.74609C80.3242 3.79818 80.3242 3.85026 80.3242 3.90234L80.2852 4.21484C80.2852 4.80078 80.0703 5.30859 79.6406 5.73828C79.2109 6.16797 78.7292 6.38281 78.1953 6.38281H77.8242L77.1602 6.28516C76.3919 6.28516 76.0078 5.88151 76.0078 5.07422L75.9492 4.625V4.33203L76.0469 3.62891C76.0469 3.26432 76.2422 2.84766 76.6328 2.37891C77.0234 1.91016 77.5378 1.67578 78.1758 1.67578ZM77.9414 26.0508C77.9414 26.7539 77.5378 27.3724 76.7305 27.9062C75.9232 28.4271 74.8359 28.6875 73.4688 28.6875H73.2344C72.349 28.6875 71.9062 28.1862 71.9062 27.1836V26.9492C71.9062 26.4674 72.0951 25.5755 72.4727 24.2734C73.7227 19.9896 74.3477 16.806 74.3477 14.7227C74.3477 14.1888 74.1914 13.7005 73.8789 13.2578C73.5664 12.8151 73.4102 12.3529 73.4102 11.8711C73.4102 11.3893 73.7357 10.9792 74.3867 10.6406C75.0508 10.2891 75.9232 10.1133 77.0039 10.1133H77.2383C78.1497 10.1133 78.6055 10.5039 78.6055 11.2852V11.5195C78.6055 11.6497 78.306 13.375 77.707 16.6953C77.1211 20.0026 76.8281 21.8125 76.8281 22.125L76.7891 22.5742L76.8086 23.0039C76.8086 23.694 76.9974 24.2995 77.375 24.8203C77.7526 25.3281 77.9414 25.7383 77.9414 26.0508ZM86.418 1.75391C86.418 0.738281 87.4857 0.230469 89.6211 0.230469H89.9531C90.4349 0.230469 90.7995 0.341146 91.0469 0.5625C91.2943 0.783854 91.418 1.21354 91.418 1.85156V2.16406C91.418 2.28125 90.8255 5.54297 89.6406 11.9492C88.4688 18.3424 87.8828 22.0404 87.8828 23.043C87.8828 24.0326 88.0846 24.8594 88.4883 25.5234C88.9049 26.1745 89.1133 26.5716 89.1133 26.7148C89.1133 27.2487 88.7357 27.75 87.9805 28.2188C87.2253 28.6745 86.3073 28.9023 85.2266 28.9023H84.9336C84.4258 28.9023 83.9961 28.7201 83.6445 28.3555C83.306 27.9909 83.1367 27.5091 83.1367 26.9102V26.5977C83.1367 25.9596 83.3385 24.8659 83.7422 23.3164C84.1589 21.7669 84.8424 18.4792 85.793 13.4531C86.7435 8.42708 87.2188 5.36068 87.2188 4.25391C87.2188 3.92839 87.082 3.53125 86.8086 3.0625C86.5482 2.58073 86.418 2.14453 86.418 1.75391ZM96.7109 28.9219H96.1055C94.9076 28.9219 94.3086 28.5182 94.3086 27.7109V27.418C94.3086 27.3659 94.6341 25.9141 95.2852 23.0625C95.9362 20.2109 96.2617 17.9909 96.2617 16.4023C96.2617 15.8424 96.2031 15.3086 96.0859 14.8008C95.9818 14.293 95.9297 13.6875 95.9297 12.9844C95.9297 12.2682 96.1315 11.6693 96.5352 11.1875C96.9518 10.7057 97.5443 10.4648 98.3125 10.4648C99.0807 10.4648 99.6211 10.6667 99.9336 11.0703C100.259 11.474 100.461 12.0143 100.539 12.6914C100.617 13.3555 100.708 13.6875 100.812 13.6875C100.943 13.6875 101.333 13.375 101.984 12.75C103.586 11.2135 105.103 10.4388 106.535 10.4258C107.499 10.4258 107.98 10.8424 107.98 11.6758V11.9297C107.98 12.5807 107.746 13.043 107.277 13.3164C106.809 13.5898 106.079 13.7852 105.09 13.9023C104.1 14.0065 103.397 14.1562 102.98 14.3516C102.564 14.5339 102.069 15.0286 101.496 15.8359C100.936 16.6302 100.461 17.776 100.07 19.2734C99.6927 20.7708 99.4323 22.2812 99.2891 23.8047C99.1458 25.3281 98.9701 26.4023 98.7617 27.0273C98.3581 28.2904 97.6745 28.9219 96.7109 28.9219ZM125.773 27.4375C125.344 28.1016 124.758 28.4336 124.016 28.4336C123.286 28.4336 122.746 28.2513 122.395 27.8867C122.251 27.7435 122.076 27.3659 121.867 26.7539C121.672 26.1419 121.438 25.8359 121.164 25.8359C121.047 25.8359 120.611 26.1094 119.855 26.6562C116.991 28.0104 115.188 28.694 114.445 28.707C114.393 28.707 114.341 28.7005 114.289 28.6875C113.013 28.6875 112.043 28.3034 111.379 27.5352C110.715 26.7669 110.383 25.6732 110.383 24.2539C110.383 23.668 110.624 22.0534 111.105 19.4102C111.587 16.7539 111.828 15.1719 111.828 14.6641C111.828 14.1562 111.737 13.6484 111.555 13.1406C111.385 12.6198 111.301 12.2161 111.301 11.9297C111.301 11.3177 112.036 11.0117 113.508 11.0117H113.898C114.536 11.0117 114.979 11.2526 115.227 11.7344C115.487 12.2161 115.617 12.9128 115.617 13.8242C115.617 14.7227 115.389 16.3112 114.934 18.5898C114.478 20.8685 114.25 22.4635 114.25 23.375C114.25 25.3411 115.005 26.3242 116.516 26.3242C117.206 26.3242 117.993 25.9922 118.879 25.3281C119.777 24.651 120.552 23.7461 121.203 22.6133C121.867 21.4805 122.551 19.026 123.254 15.25C123.449 14.1302 123.625 13.375 123.781 12.9844C124.237 11.8125 124.868 11.2266 125.676 11.2266C126.053 11.2266 126.385 11.3828 126.672 11.6953C126.971 11.9948 127.121 12.3464 127.121 12.75V13.1992C127.121 13.4987 127.023 14.1693 126.828 15.2109C126.646 16.2526 126.496 17.1576 126.379 17.9258C126.262 18.694 126.203 19.8594 126.203 21.4219L126.418 25.2109C126.418 26.0182 126.203 26.7604 125.773 27.4375ZM133.215 17.4961L133.02 14.8203C133.02 13.8047 133.254 12.8672 133.723 12.0078C134.178 11.1484 134.745 10.7188 135.422 10.7188C136.49 10.7188 137.18 11.3242 137.492 12.5352C137.648 13.1862 137.818 13.5117 138 13.5117C138.182 13.5117 138.651 13.2188 139.406 12.6328C140.161 12.0339 140.962 11.5391 141.809 11.1484C142.668 10.7578 143.658 10.5625 144.777 10.5625C145.897 10.5625 146.841 10.8945 147.609 11.5586C148.378 12.2227 148.762 13.2708 148.762 14.7031V15.25C148.762 15.5755 148.566 16.9362 148.176 19.332C147.785 21.7148 147.59 23.2969 147.59 24.0781C147.59 24.8464 147.694 25.4909 147.902 26.0117C148.124 26.5195 148.234 26.8255 148.234 26.9297C148.234 27.6849 147.342 28.0625 145.559 28.0625C144.335 28.0625 143.723 26.9753 143.723 24.8008C143.723 24.4102 143.918 23.043 144.309 20.6992C144.699 18.3555 144.895 16.806 144.895 16.0508C144.895 15.2826 144.699 14.5924 144.309 13.9805C143.918 13.3555 143.378 13.043 142.688 13.043C142.01 13.043 141.262 13.2839 140.441 13.7656C139.621 14.2474 138.872 15.0221 138.195 16.0898C137.518 17.1576 136.854 19.1693 136.203 22.125C135.565 25.0677 135.233 26.5716 135.207 26.6367C134.764 27.7956 134.152 28.375 133.371 28.375H133.059C132.655 28.375 132.303 28.2253 132.004 27.9258C131.704 27.6263 131.555 27.2617 131.555 26.832C131.555 26.3893 131.828 25.1393 132.375 23.082C132.935 21.0247 133.215 19.1628 133.215 17.4961ZM154.973 17.4961L154.777 14.8203C154.777 13.8047 155.012 12.8672 155.48 12.0078C155.936 11.1484 156.503 10.7188 157.18 10.7188C158.247 10.7188 158.938 11.3242 159.25 12.5352C159.406 13.1862 159.576 13.5117 159.758 13.5117C159.94 13.5117 160.409 13.2188 161.164 12.6328C161.919 12.0339 162.72 11.5391 163.566 11.1484C164.426 10.7578 165.415 10.5625 166.535 10.5625C167.655 10.5625 168.599 10.8945 169.367 11.5586C170.135 12.2227 170.52 13.2708 170.52 14.7031V15.25C170.52 15.5755 170.324 16.9362 169.934 19.332C169.543 21.7148 169.348 23.2969 169.348 24.0781C169.348 24.8464 169.452 25.4909 169.66 26.0117C169.882 26.5195 169.992 26.8255 169.992 26.9297C169.992 27.6849 169.1 28.0625 167.316 28.0625C166.092 28.0625 165.48 26.9753 165.48 24.8008C165.48 24.4102 165.676 23.043 166.066 20.6992C166.457 18.3555 166.652 16.806 166.652 16.0508C166.652 15.2826 166.457 14.5924 166.066 13.9805C165.676 13.3555 165.135 13.043 164.445 13.043C163.768 13.043 163.02 13.2839 162.199 13.7656C161.379 14.2474 160.63 15.0221 159.953 16.0898C159.276 17.1576 158.612 19.1693 157.961 22.125C157.323 25.0677 156.991 26.5716 156.965 26.6367C156.522 27.7956 155.91 28.375 155.129 28.375H154.816C154.413 28.375 154.061 28.2253 153.762 27.9258C153.462 27.6263 153.312 27.2617 153.312 26.832C153.312 26.3893 153.586 25.1393 154.133 23.082C154.693 21.0247 154.973 19.1628 154.973 17.4961ZM184.074 12.3008C183.02 12.3008 181.9 12.9648 180.715 14.293C179.543 15.6081 178.957 16.819 178.957 17.9258C178.957 18.3685 179.185 18.5898 179.641 18.5898H179.855L179.992 18.5703L180.715 18.4922C182.082 18.4922 183.742 18.0495 185.695 17.1641C186.841 16.6432 187.414 15.9727 187.414 15.1523V14.6836C187.414 14.0586 187.193 13.4987 186.75 13.0039C186.307 12.5091 185.741 12.2617 185.051 12.2617H184.426C184.27 12.2878 184.152 12.3008 184.074 12.3008ZM181.633 29.1953H180.812C179.185 29.1953 177.74 28.5898 176.477 27.3789C175.227 26.168 174.602 24.599 174.602 22.6719V21.4609C174.602 20.0547 174.901 18.6029 175.5 17.1055C176.763 13.9935 178.723 11.8581 181.379 10.6992C182.616 10.1654 183.983 9.89844 185.48 9.89844C186.991 9.89844 188.247 10.3281 189.25 11.1875C190.253 12.0469 190.754 13.1602 190.754 14.5273V14.8984C190.754 16.5521 190.038 17.8086 188.605 18.668C187.512 19.332 185.363 19.944 182.16 20.5039C180.689 20.7643 179.849 20.9401 179.641 21.0312C178.951 21.3177 178.605 21.9688 178.605 22.9844C178.605 23.987 179.055 24.8398 179.953 25.543C180.578 26.0378 181.385 26.2852 182.375 26.2852C183.365 26.2852 184.452 26.0573 185.637 25.6016C186.822 25.1328 187.59 24.8984 187.941 24.8984C188.384 24.8984 188.605 25.1589 188.605 25.6797C188.605 26.474 187.785 27.2617 186.145 28.043C184.517 28.8112 183.013 29.1953 181.633 29.1953ZM196.242 28.9219H195.637C194.439 28.9219 193.84 28.5182 193.84 27.7109V27.418C193.84 27.3659 194.165 25.9141 194.816 23.0625C195.467 20.2109 195.793 17.9909 195.793 16.4023C195.793 15.8424 195.734 15.3086 195.617 14.8008C195.513 14.293 195.461 13.6875 195.461 12.9844C195.461 12.2682 195.663 11.6693 196.066 11.1875C196.483 10.7057 197.076 10.4648 197.844 10.4648C198.612 10.4648 199.152 10.6667 199.465 11.0703C199.79 11.474 199.992 12.0143 200.07 12.6914C200.148 13.3555 200.24 13.6875 200.344 13.6875C200.474 13.6875 200.865 13.375 201.516 12.75C203.117 11.2135 204.634 10.4388 206.066 10.4258C207.03 10.4258 207.512 10.8424 207.512 11.6758V11.9297C207.512 12.5807 207.277 13.043 206.809 13.3164C206.34 13.5898 205.611 13.7852 204.621 13.9023C203.632 14.0065 202.928 14.1562 202.512 14.3516C202.095 14.5339 201.6 15.0286 201.027 15.8359C200.467 16.6302 199.992 17.776 199.602 19.2734C199.224 20.7708 198.964 22.2812 198.82 23.8047C198.677 25.3281 198.501 26.4023 198.293 27.0273C197.889 28.2904 197.206 28.9219 196.242 28.9219Z" fill="#059B9C"/>
</svg>
